<mxfile host="app.diagrams.net" modified="2021-09-20T16:35:55.357Z" agent="5.0 (Macintosh; Intel Mac OS X 10_15_7) AppleWebKit/537.36 (KHTML, like Gecko) Chrome/93.0.4577.82 Safari/537.36" etag="MpGJRqyGDJuOJGpMdaNn" version="15.2.9" type="github">
  <diagram id="prtHgNgQTEPvFCAcTncT" name="Page-1">
    <mxGraphModel dx="7380" dy="5607" grid="1" gridSize="10" guides="1" tooltips="1" connect="1" arrows="1" fold="1" page="1" pageScale="1" pageWidth="827" pageHeight="1169" math="0" shadow="0">
      <root>
        <mxCell id="0" />
        <mxCell id="1" parent="0" />
        <mxCell id="EqTpDdR83oeHTOsEXcCr-12" style="rounded=0;orthogonalLoop=1;jettySize=auto;html=1;entryX=0.5;entryY=0;entryDx=0;entryDy=0;exitX=0.5;exitY=1;exitDx=0;exitDy=0;endArrow=none;endFill=0;" edge="1" parent="1" source="EqTpDdR83oeHTOsEXcCr-1" target="EqTpDdR83oeHTOsEXcCr-3">
          <mxGeometry relative="1" as="geometry" />
        </mxCell>
        <mxCell id="EqTpDdR83oeHTOsEXcCr-1" value="" style="ellipse;whiteSpace=wrap;html=1;aspect=fixed;fillColor=#fff2cc;strokeColor=#d6b656;" vertex="1" parent="1">
          <mxGeometry x="374" y="230" width="20" height="20" as="geometry" />
        </mxCell>
        <mxCell id="EqTpDdR83oeHTOsEXcCr-3" value="" style="ellipse;whiteSpace=wrap;html=1;aspect=fixed;fillColor=#d5e8d4;strokeColor=#82b366;" vertex="1" parent="1">
          <mxGeometry x="316" y="260" width="20" height="20" as="geometry" />
        </mxCell>
        <mxCell id="EqTpDdR83oeHTOsEXcCr-78" style="edgeStyle=none;rounded=0;orthogonalLoop=1;jettySize=auto;html=1;exitX=0.5;exitY=1;exitDx=0;exitDy=0;entryX=0.5;entryY=0;entryDx=0;entryDy=0;startArrow=none;startFill=0;endArrow=none;endFill=0;" edge="1" parent="1" source="EqTpDdR83oeHTOsEXcCr-4" target="EqTpDdR83oeHTOsEXcCr-77">
          <mxGeometry relative="1" as="geometry" />
        </mxCell>
        <mxCell id="EqTpDdR83oeHTOsEXcCr-4" value="" style="ellipse;whiteSpace=wrap;html=1;aspect=fixed;dashed=1;" vertex="1" parent="1">
          <mxGeometry x="489" y="260" width="20" height="20" as="geometry" />
        </mxCell>
        <mxCell id="EqTpDdR83oeHTOsEXcCr-5" value="&lt;font style=&quot;font-size: 16px&quot;&gt;Aggregator&lt;/font&gt;" style="text;html=1;resizable=0;autosize=1;align=center;verticalAlign=middle;points=[];fillColor=none;strokeColor=none;rounded=0;" vertex="1" parent="1">
          <mxGeometry x="570" y="310" width="90" height="20" as="geometry" />
        </mxCell>
        <mxCell id="EqTpDdR83oeHTOsEXcCr-6" value="" style="ellipse;whiteSpace=wrap;html=1;aspect=fixed;fillColor=#f8cecc;strokeColor=#b85450;" vertex="1" parent="1">
          <mxGeometry x="374" y="260" width="20" height="20" as="geometry" />
        </mxCell>
        <mxCell id="EqTpDdR83oeHTOsEXcCr-7" value="" style="ellipse;whiteSpace=wrap;html=1;aspect=fixed;fillColor=#dae8fc;strokeColor=#6c8ebf;" vertex="1" parent="1">
          <mxGeometry x="455" y="290" width="20" height="20" as="geometry" />
        </mxCell>
        <mxCell id="EqTpDdR83oeHTOsEXcCr-26" style="edgeStyle=none;rounded=0;orthogonalLoop=1;jettySize=auto;html=1;entryX=0.5;entryY=1;entryDx=0;entryDy=0;endArrow=none;endFill=0;exitX=0.5;exitY=0;exitDx=0;exitDy=0;" edge="1" parent="1" source="EqTpDdR83oeHTOsEXcCr-46" target="EqTpDdR83oeHTOsEXcCr-3">
          <mxGeometry relative="1" as="geometry">
            <mxPoint x="285" y="310" as="sourcePoint" />
          </mxGeometry>
        </mxCell>
        <mxCell id="EqTpDdR83oeHTOsEXcCr-10" value="" style="rounded=1;whiteSpace=wrap;html=1;fillColor=none;" vertex="1" parent="1">
          <mxGeometry x="269" y="30" width="220" height="150" as="geometry" />
        </mxCell>
        <mxCell id="EqTpDdR83oeHTOsEXcCr-15" style="rounded=0;orthogonalLoop=1;jettySize=auto;html=1;entryX=0.5;entryY=0;entryDx=0;entryDy=0;exitX=0.5;exitY=1;exitDx=0;exitDy=0;endArrow=none;endFill=0;" edge="1" parent="1" source="EqTpDdR83oeHTOsEXcCr-1" target="EqTpDdR83oeHTOsEXcCr-6">
          <mxGeometry relative="1" as="geometry">
            <mxPoint x="410" y="225" as="sourcePoint" />
            <mxPoint x="345" y="250" as="targetPoint" />
          </mxGeometry>
        </mxCell>
        <mxCell id="EqTpDdR83oeHTOsEXcCr-17" style="rounded=0;orthogonalLoop=1;jettySize=auto;html=1;entryX=0.5;entryY=0;entryDx=0;entryDy=0;endArrow=none;endFill=0;exitX=0.5;exitY=1;exitDx=0;exitDy=0;" edge="1" parent="1" source="EqTpDdR83oeHTOsEXcCr-1" target="EqTpDdR83oeHTOsEXcCr-4">
          <mxGeometry relative="1" as="geometry">
            <mxPoint x="400" y="220" as="sourcePoint" />
            <mxPoint x="399.76" y="240" as="targetPoint" />
          </mxGeometry>
        </mxCell>
        <mxCell id="EqTpDdR83oeHTOsEXcCr-19" value="" style="ellipse;whiteSpace=wrap;html=1;aspect=fixed;fillColor=#e1d5e7;strokeColor=#9673a6;" vertex="1" parent="1">
          <mxGeometry x="390" y="290" width="20" height="20" as="geometry" />
        </mxCell>
        <mxCell id="EqTpDdR83oeHTOsEXcCr-20" style="rounded=0;orthogonalLoop=1;jettySize=auto;html=1;entryX=0.5;entryY=1;entryDx=0;entryDy=0;exitX=0.5;exitY=0;exitDx=0;exitDy=0;endArrow=none;endFill=0;" edge="1" parent="1" source="EqTpDdR83oeHTOsEXcCr-19" target="EqTpDdR83oeHTOsEXcCr-6">
          <mxGeometry relative="1" as="geometry">
            <mxPoint x="410" y="229" as="sourcePoint" />
            <mxPoint x="410" y="250" as="targetPoint" />
          </mxGeometry>
        </mxCell>
        <mxCell id="EqTpDdR83oeHTOsEXcCr-21" style="rounded=0;orthogonalLoop=1;jettySize=auto;html=1;entryX=0.5;entryY=1;entryDx=0;entryDy=0;exitX=0.5;exitY=0;exitDx=0;exitDy=0;endArrow=none;endFill=0;" edge="1" parent="1" source="EqTpDdR83oeHTOsEXcCr-7" target="EqTpDdR83oeHTOsEXcCr-4">
          <mxGeometry relative="1" as="geometry">
            <mxPoint x="464.9999999999999" y="320" as="sourcePoint" />
            <mxPoint x="474.9999999999999" y="300" as="targetPoint" />
          </mxGeometry>
        </mxCell>
        <mxCell id="EqTpDdR83oeHTOsEXcCr-55" style="edgeStyle=none;rounded=0;orthogonalLoop=1;jettySize=auto;html=1;entryX=0.5;entryY=1;entryDx=0;entryDy=0;endArrow=none;endFill=0;exitX=0.5;exitY=0;exitDx=0;exitDy=0;" edge="1" parent="1" source="EqTpDdR83oeHTOsEXcCr-31" target="EqTpDdR83oeHTOsEXcCr-47">
          <mxGeometry relative="1" as="geometry" />
        </mxCell>
        <mxCell id="EqTpDdR83oeHTOsEXcCr-31" value="" style="whiteSpace=wrap;html=1;aspect=fixed;fillColor=none;" vertex="1" parent="1">
          <mxGeometry x="280" y="330" width="20" height="20" as="geometry" />
        </mxCell>
        <mxCell id="EqTpDdR83oeHTOsEXcCr-32" style="edgeStyle=none;rounded=0;orthogonalLoop=1;jettySize=auto;html=1;exitX=1;exitY=1;exitDx=0;exitDy=0;endArrow=none;endFill=0;" edge="1" parent="1" source="EqTpDdR83oeHTOsEXcCr-31" target="EqTpDdR83oeHTOsEXcCr-31">
          <mxGeometry relative="1" as="geometry" />
        </mxCell>
        <mxCell id="EqTpDdR83oeHTOsEXcCr-44" style="edgeStyle=none;rounded=0;orthogonalLoop=1;jettySize=auto;html=1;entryX=0.5;entryY=1;entryDx=0;entryDy=0;endArrow=none;endFill=0;exitX=0.5;exitY=0;exitDx=0;exitDy=0;" edge="1" parent="1" source="EqTpDdR83oeHTOsEXcCr-43" target="EqTpDdR83oeHTOsEXcCr-6">
          <mxGeometry relative="1" as="geometry" />
        </mxCell>
        <mxCell id="EqTpDdR83oeHTOsEXcCr-43" value="" style="ellipse;whiteSpace=wrap;html=1;aspect=fixed;dashed=1;" vertex="1" parent="1">
          <mxGeometry x="360" y="290" width="20" height="20" as="geometry" />
        </mxCell>
        <mxCell id="EqTpDdR83oeHTOsEXcCr-46" value="" style="ellipse;whiteSpace=wrap;html=1;aspect=fixed;dashed=1;" vertex="1" parent="1">
          <mxGeometry x="330" y="290" width="20" height="20" as="geometry" />
        </mxCell>
        <mxCell id="EqTpDdR83oeHTOsEXcCr-48" style="edgeStyle=none;rounded=0;orthogonalLoop=1;jettySize=auto;html=1;entryX=0.5;entryY=1;entryDx=0;entryDy=0;endArrow=none;endFill=0;exitX=0.5;exitY=0;exitDx=0;exitDy=0;" edge="1" parent="1" source="EqTpDdR83oeHTOsEXcCr-47" target="EqTpDdR83oeHTOsEXcCr-3">
          <mxGeometry relative="1" as="geometry" />
        </mxCell>
        <mxCell id="EqTpDdR83oeHTOsEXcCr-47" value="" style="ellipse;whiteSpace=wrap;html=1;aspect=fixed;dashed=1;" vertex="1" parent="1">
          <mxGeometry x="300" y="290" width="20" height="20" as="geometry" />
        </mxCell>
        <mxCell id="EqTpDdR83oeHTOsEXcCr-56" style="edgeStyle=none;rounded=0;orthogonalLoop=1;jettySize=auto;html=1;entryX=0.5;entryY=1;entryDx=0;entryDy=0;endArrow=none;endFill=0;exitX=0.5;exitY=0;exitDx=0;exitDy=0;" edge="1" parent="1" source="EqTpDdR83oeHTOsEXcCr-51" target="EqTpDdR83oeHTOsEXcCr-47">
          <mxGeometry relative="1" as="geometry" />
        </mxCell>
        <mxCell id="EqTpDdR83oeHTOsEXcCr-51" value="" style="whiteSpace=wrap;html=1;aspect=fixed;fillColor=none;" vertex="1" parent="1">
          <mxGeometry x="310" y="330" width="20" height="20" as="geometry" />
        </mxCell>
        <mxCell id="EqTpDdR83oeHTOsEXcCr-57" style="edgeStyle=none;rounded=0;orthogonalLoop=1;jettySize=auto;html=1;entryX=0.5;entryY=1;entryDx=0;entryDy=0;endArrow=none;endFill=0;exitX=0.5;exitY=0;exitDx=0;exitDy=0;" edge="1" parent="1" source="EqTpDdR83oeHTOsEXcCr-52" target="EqTpDdR83oeHTOsEXcCr-46">
          <mxGeometry relative="1" as="geometry" />
        </mxCell>
        <mxCell id="EqTpDdR83oeHTOsEXcCr-52" value="" style="whiteSpace=wrap;html=1;aspect=fixed;fillColor=none;" vertex="1" parent="1">
          <mxGeometry x="340" y="330" width="20" height="20" as="geometry" />
        </mxCell>
        <mxCell id="EqTpDdR83oeHTOsEXcCr-58" style="edgeStyle=none;rounded=0;orthogonalLoop=1;jettySize=auto;html=1;exitX=0.5;exitY=0;exitDx=0;exitDy=0;entryX=0.5;entryY=1;entryDx=0;entryDy=0;endArrow=none;endFill=0;" edge="1" parent="1" source="EqTpDdR83oeHTOsEXcCr-53" target="EqTpDdR83oeHTOsEXcCr-43">
          <mxGeometry relative="1" as="geometry" />
        </mxCell>
        <mxCell id="EqTpDdR83oeHTOsEXcCr-53" value="" style="whiteSpace=wrap;html=1;aspect=fixed;fillColor=none;" vertex="1" parent="1">
          <mxGeometry x="370" y="330" width="20" height="20" as="geometry" />
        </mxCell>
        <mxCell id="EqTpDdR83oeHTOsEXcCr-63" style="edgeStyle=none;rounded=0;orthogonalLoop=1;jettySize=auto;html=1;entryX=0.5;entryY=1;entryDx=0;entryDy=0;endArrow=none;endFill=0;exitX=0.5;exitY=0;exitDx=0;exitDy=0;" edge="1" parent="1" source="EqTpDdR83oeHTOsEXcCr-54" target="EqTpDdR83oeHTOsEXcCr-77">
          <mxGeometry relative="1" as="geometry" />
        </mxCell>
        <mxCell id="EqTpDdR83oeHTOsEXcCr-54" value="" style="whiteSpace=wrap;html=1;aspect=fixed;fillColor=none;" vertex="1" parent="1">
          <mxGeometry x="455" y="330" width="20" height="20" as="geometry" />
        </mxCell>
        <mxCell id="EqTpDdR83oeHTOsEXcCr-62" style="edgeStyle=none;rounded=0;orthogonalLoop=1;jettySize=auto;html=1;entryX=0.5;entryY=1;entryDx=0;entryDy=0;endArrow=none;endFill=0;exitX=0.5;exitY=0;exitDx=0;exitDy=0;" edge="1" parent="1" source="EqTpDdR83oeHTOsEXcCr-60" target="EqTpDdR83oeHTOsEXcCr-19">
          <mxGeometry relative="1" as="geometry" />
        </mxCell>
        <mxCell id="EqTpDdR83oeHTOsEXcCr-60" value="" style="whiteSpace=wrap;html=1;aspect=fixed;fillColor=none;" vertex="1" parent="1">
          <mxGeometry x="400" y="330" width="20" height="20" as="geometry" />
        </mxCell>
        <mxCell id="EqTpDdR83oeHTOsEXcCr-67" value="" style="endArrow=none;html=1;entryX=0;entryY=1;entryDx=0;entryDy=0;" edge="1" parent="1" target="EqTpDdR83oeHTOsEXcCr-53">
          <mxGeometry width="50" height="50" relative="1" as="geometry">
            <mxPoint x="280" y="370" as="sourcePoint" />
            <mxPoint x="455" y="350" as="targetPoint" />
          </mxGeometry>
        </mxCell>
        <mxCell id="EqTpDdR83oeHTOsEXcCr-68" value="" style="endArrow=none;html=1;entryX=1;entryY=1;entryDx=0;entryDy=0;" edge="1" parent="1" target="EqTpDdR83oeHTOsEXcCr-53">
          <mxGeometry width="50" height="50" relative="1" as="geometry">
            <mxPoint x="480" y="370" as="sourcePoint" />
            <mxPoint x="390" y="360" as="targetPoint" />
          </mxGeometry>
        </mxCell>
        <mxCell id="EqTpDdR83oeHTOsEXcCr-73" style="edgeStyle=none;rounded=0;orthogonalLoop=1;jettySize=auto;html=1;exitX=1;exitY=0.5;exitDx=0;exitDy=0;exitPerimeter=0;entryX=0;entryY=0.5;entryDx=0;entryDy=0;entryPerimeter=0;endArrow=classic;endFill=1;startArrow=classic;startFill=1;" edge="1" parent="1" source="EqTpDdR83oeHTOsEXcCr-69" target="EqTpDdR83oeHTOsEXcCr-70">
          <mxGeometry relative="1" as="geometry" />
        </mxCell>
        <mxCell id="EqTpDdR83oeHTOsEXcCr-69" value="" style="shape=cylinder3;whiteSpace=wrap;html=1;boundedLbl=1;backgroundOutline=1;size=6.666666666666629;fillColor=none;" vertex="1" parent="1">
          <mxGeometry x="310" y="400" width="50" height="40" as="geometry" />
        </mxCell>
        <mxCell id="EqTpDdR83oeHTOsEXcCr-70" value="" style="shape=cylinder3;whiteSpace=wrap;html=1;boundedLbl=1;backgroundOutline=1;size=6.666666666666629;fillColor=none;" vertex="1" parent="1">
          <mxGeometry x="415" y="400" width="50" height="40" as="geometry" />
        </mxCell>
        <mxCell id="EqTpDdR83oeHTOsEXcCr-77" value="" style="ellipse;whiteSpace=wrap;html=1;aspect=fixed;dashed=1;" vertex="1" parent="1">
          <mxGeometry x="520" y="290" width="20" height="20" as="geometry" />
        </mxCell>
        <mxCell id="EqTpDdR83oeHTOsEXcCr-80" style="edgeStyle=none;rounded=0;orthogonalLoop=1;jettySize=auto;html=1;entryX=0.5;entryY=1;entryDx=0;entryDy=0;startArrow=none;startFill=0;endArrow=none;endFill=0;" edge="1" parent="1" source="EqTpDdR83oeHTOsEXcCr-79" target="EqTpDdR83oeHTOsEXcCr-7">
          <mxGeometry relative="1" as="geometry" />
        </mxCell>
        <mxCell id="EqTpDdR83oeHTOsEXcCr-79" value="" style="whiteSpace=wrap;html=1;aspect=fixed;fillColor=none;" vertex="1" parent="1">
          <mxGeometry x="430" y="330" width="20" height="20" as="geometry" />
        </mxCell>
      </root>
    </mxGraphModel>
  </diagram>
</mxfile>
